<?xml version="1.0" standalone="no"?>
<!DOCTYPE svg PUBLIC "-//W3C//DTD SVG 20010904//EN"
 "http://www.w3.org/TR/2001/REC-SVG-20010904/DTD/svg10.dtd">
<svg version="1.0" xmlns="http://www.w3.org/2000/svg"
 width="759.000000pt" height="759.000000pt" viewBox="0 0 759.000000 759.000000"
 preserveAspectRatio="xMidYMid meet">
<metadata>
Created by potrace 1.11, written by Peter Selinger 2001-2013
</metadata>
<g transform="translate(0.000000,759.000000) scale(0.100000,-0.100000)"
fill="#000000" stroke="none">
<path d="M3583 7288 c-6 -7 -16 -31 -23 -53 -26 -80 -139 -334 -223 -500 -117
-230 -161 -310 -275 -497 -171 -281 -181 -298 -473 -718 -25 -36 -70 -105
-101 -155 -30 -49 -85 -138 -121 -197 -37 -59 -67 -110 -67 -112 0 -3 -14 -29
-31 -58 -57 -97 -214 -411 -267 -536 -114 -266 -188 -532 -213 -767 -16 -152
-6 -431 21 -555 68 -318 216 -613 473 -941 61 -78 322 -364 349 -383 10 -7 87
-76 171 -153 133 -122 391 -349 498 -438 330 -274 633 -593 752 -792 18 -29
35 -53 39 -53 14 0 408 380 408 394 0 5 7 18 17 28 16 17 11 18 -139 18 l-155
0 -7 65 c-4 35 -18 104 -32 152 -75 260 -194 447 -564 883 -201 237 -304 376
-385 520 -279 491 -254 945 69 1278 209 216 529 326 897 309 228 -11 387 -40
871 -158 179 -43 380 -88 445 -100 156 -28 354 -30 438 -5 63 19 105 41 105
55 0 5 -71 65 -157 133 -425 334 -617 529 -720 731 -56 112 -114 277 -147 422
-31 132 -48 187 -76 249 -90 193 -269 384 -500 531 -90 58 -269 144 -362 175
-38 12 -68 27 -68 34 0 6 9 43 19 81 41 149 49 267 30 416 -32 256 -175 496
-383 645 -49 35 -92 64 -96 64 -4 0 -12 -6 -17 -12z"/>
<path d="M3830 3658 c3 -3 61 -43 130 -90 69 -47 143 -97 164 -111 35 -24 47
-27 125 -26 l86 0 -40 19 c-55 27 -436 200 -455 208 -8 3 -13 3 -10 0z"/>
</g>
</svg>
